screens;
 
http://baypic.net/img-51758a817ed00.html 
 
http://baypic.net/img-51758a846eb72.html 
 
http://baypic.net/img-51758a876054c.html 

Format                                   : Windows Media
File size                                : 398 MiB
Duration                                 : 14mn 25s
Overall bit rate mode                    : Variable
Overall bit rate                         : 3 860 Kbps
Maximum Overall bit rate                 : 3 851 Kbps
Movie name                               : wmbcv-0713hd
Performer                                : Jim Weathers
Encoded date                             : UTC 2013-04-13 05:39:12.000
Writing application                      : Flip4Mac WMV Export Component for QuickTime (Mac) 2442
Copyright                                : ?2013 Jim Weathers Productions, Inc.
Comment                                  : Jean Bardot and Randy Moore
Rating                                   : Adult

Video
ID                                       : 2
Format                                   : VC-1
Format profile                           : Main
Codec ID                                 : WMV3
Codec ID/Info                            : Windows Media Video 9
Codec ID/Hint                            : WMV3
Description of the codec                 : Windows Media Video V9 - 1280 x 720, 29.97 fps, Q=90 (VBR)
Duration                                 : 14mn 25s
Bit rate                                 : 3 787 Kbps
Width                                    : 1 280 pixels
Height                                   : 720 pixels
Display aspect ratio                     : 16:9
Frame rate                               : 29.970 fps
Bit depth                                : 8 bits
Scan type                                : Progressive
Compression mode                         : Lossy
Bits/(Pixel*Frame)                       : 0.137
Stream size                              : 391 MiB (98%)
Language                                 : English (US)

Audio
ID                                       : 1
Format                                   : WMA
Format version                           : Version 2
Codec ID                                 : 161
Codec ID/Info                            : Windows Media Audio
Description of the codec                 : Windows Media Audio V9 Standard - 64 kbps, 44 kHz, 16 bit, Stereo (CBR)
Duration                                 : 14mn 25s
Bit rate mode                            : Variable
Bit rate                                 : 64.0 Kbps
Channel(s)                               : 2 channels
Sampling rate                            : 44.1 KHz
Bit depth                                : 16 bits
Stream size                              : 6.61 MiB (2%)
Language                                 : English (US)
